/* XPM */
static char *e87e64dd56c3445c8a02132beececd43vNaCXcNHxEQqV1Ry[] = {
/* columns rows colors chars-per-pixel */
"32 32 192 2 ",
"   c #72B6CF",
".  c #73B7D1",
"X  c #73B8D1",
"o  c #73B7D0",
"O  c #71B4CD",
"+  c #64A2B8",
"@  c #629FB4",
"#  c #64A2B7",
"$  c #639FB5",
"%  c #5C91A5",
"&  c #323A47",
"*  c #2B2B37",
"=  c #63A0B5",
"-  c #71B5CE",
";  c #5E94A9",
":  c #2A2A35",
">  c #41394C",
",  c #C48ACA",
"<  c #DA97E0",
"1  c #C489CA",
"2  c #40334C",
"3  c #292335",
"4  c #323446",
"5  c #5E93A8",
"6  c #5C93A7",
"7  c #47475B",
"8  c #C389C9",
"9  c #DA97DF",
"0  c #DC94E2",
"q  c #F388FB",
"w  c #F786FF",
"e  c #F283FB",
"r  c #DA70E1",
"t  c #D76EDE",
"y  c #C164C8",
"u  c #463C5A",
"i  c #46415A",
"p  c #C786CD",
"a  c #F489FD",
"s  c #F886FF",
"d  c #F785FF",
"f  c #F47FFD",
"g  c #F47EFD",
"h  c #F77FFF",
"j  c #F87FFF",
"k  c #F47DFC",
"l  c #C566CC",
"z  c #463A5A",
"x  c #F482FC",
"c  c #F37FFE",
"v  c #DE81FD",
"b  c #DF81FD",
"n  c #F27EFD",
"m  c #DE82FD",
"M  c #DF82FD",
"N  c #463B5A",
"B  c #65A2B7",
"V  c #313246",
"C  c #BF59C7",
"Z  c #F37BFC",
"A  c #F47EFE",
"S  c #CF86FD",
"D  c #6BA6FC",
"F  c #67A7FD",
"G  c #CF87FD",
"H  c #F37CFC",
"J  c #72B7D1",
"K  c #5D9CB5",
"L  c #2A2235",
"P  c #D86CDE",
"I  c #F67FFF",
"U  c #D087FD",
"Y  c #78AEFC",
"T  c #A6E8FA",
"R  c #8FECFD",
"E  c #6EB0FD",
"W  c #CD87FD",
"Q  c #CE87FD",
"!  c #6EB5D1",
"~  c #4793BD",
"^  c #2A324E",
"/  c #C275E0",
"(  c #CA87FF",
")  c #68A7FC",
"_  c #A4E6FA",
"`  c #9CF4FD",
"'  c #93F5FE",
"]  c #89EAFE",
"[  c #51ABFD",
"{  c #56AAFC",
"}  c #A5E6FA",
"|  c #88EBFE",
" . c #63A8FD",
".. c #CB87FF",
"X. c #65ABCA",
"o. c #3E82B5",
"O. c #5B97F2",
"+. c #5E9DFE",
"@. c #56ABFD",
"#. c #87E1FD",
"$. c #5FB5FD",
"%. c #82E2FE",
"&. c #52ABFD",
"*. c #55ABFD",
"=. c #2F354D",
"-. c #C174E0",
";. c #DE84FF",
":. c #CB88FD",
">. c #77A2FD",
",. c #CC87FD",
"<. c #CD88FD",
"1. c #2B2436",
"2. c #D76DDD",
"3. c #E281FD",
"4. c #D76CDE",
"5. c #F57EFD",
"6. c #F57CFD",
"7. c #BF58C7",
"8. c #F37AFC",
"9. c #F47CFD",
"0. c #F271FC",
"q. c #F379FD",
"w. c #46395A",
"e. c #C35CCC",
"r. c #F17BFA",
"t. c #F37AFD",
"y. c #F16FFC",
"u. c #5A8FA3",
"i. c #3F2B4A",
"p. c #DB70E2",
"a. c #65A3B9",
"s. c #313446",
"d. c #C064C7",
"f. c #F27DFB",
"g. c #6FB3CB",
"h. c #548195",
"j. c #54355F",
"k. c #DD71E5",
"l. c #F57FFF",
"z. c #5A90A4",
"x. c #463A5B",
"c. c #C25BCB",
"v. c #5F93A9",
"b. c #333248",
"n. c #2C2338",
"m. c #2B2338",
"M. c #2A2536",
"N. c #3F2C4B",
"B. c #2B2538",
"V. c #66A5BB",
"C. c #374055",
"Z. c #A149A9",
"A. c #BA50C0",
"S. c #D15DD9",
"D. c #D76ADE",
"F. c #D96DE1",
"G. c #F27BFA",
"H. c #DA6FE1",
"J. c #D368DA",
"K. c #BB52C1",
"L. c #6FB3CC",
"P. c #568EA5",
"I. c #2F3045",
"U. c #3F294B",
"Y. c #C057C9",
"T. c #DB62E3",
"R. c #F16FFB",
"E. c #F67BFF",
"W. c #F67DFF",
"Q. c #F27BFB",
"!. c #D56DDC",
"~. c #DB64E3",
"^. c #C158C9",
"/. c #6EB3CC",
"(. c #5A9EB4",
"). c #518BA1",
"_. c #2D3044",
"`. c #3D2849",
"'. c #BF56C7",
"]. c #D55FDD",
"[. c #3E2B4B",
"{. c #272334",
"}. c #C058C9",
"|. c #71B7D0",
" X c #303146",
".X c #2A2236",
"XX c #528BA1",
"oX c #589BB1",
"OX c #303045",
"+X c #6FB4CD",
"@X c #6FB4CC",
"#X c white",
/* pixels */
"                            . X X .                             ",
"                      o X O + @ @ + O X o                       ",
"                    O # $ % & * * & % = + O                     ",
"                  - ; & : > , < < 1 2 3 4 5 -                   ",
"                - 6 7 8 9 0 q w w e r t y u 6 -                 ",
"              - 6 i p a s d f g g g h j k l u 6 -               ",
"            O 5 z l x c v b n g g n m M c k l N 5 O             ",
"          o B V C Z A S D F G g g G D F G A H C V B o           ",
"          J K L P I U Y T R E W Q Y T R E G I P L K J           ",
"          ! ~ ^ / ( ) _ ` ' ] [ { } ` ' |  .../ ^ ~ !           ",
"            X.o.O.+.@.#.$.$.%.[ &.#.$.$.%.*.+.O.o.X.            ",
"          o + =.-.;.:.>.,.,.>.<.<.>.,.,.>.:.;.-.=.+ o           ",
"          . @ 1.2.j n 3.n n 3.n n 3.n n 3.n j 2.1.@ .           ",
"          . @ 1.4.I g 5.g g 6.g g 6.g g 5.g I 4.1.@ .           ",
"          o + V 7.8.g g g 9.0.q.q.0.9.g g g 8.7.V + o           ",
"            O 5 w.e.r.g g g t.y.y.t.g g g r.e.w.5 O             ",
"              - u.i.p.I g g g 9.9.g g g I p.i.u.-               ",
"              . a.s.d.f.g g g g g g g g f.d.s.a..               ",
"        o . . X g.h.j.k.l.g g g g g g l.k.j.h.g.X . . o         ",
"      O + @ @ = z.x.c.r.g g g g g g g g r.c.x.z.= @ @ + O       ",
"    O v.b.n.m.M.N.e.8.g g g g g g g g g g 8.e.N.M.B.n.b.v.O     ",
"  o V.C.Z.A.S.D.F.r.g g I I I g g I I I g g G.H.4.J.K.Z.C.V.o   ",
"    L.P.I.U.Y.T.R.E.W.Q.H.!.H.Q.Q.H.!.H.Q.W.W.8.~.^.U.I.P.L.    ",
"      /.(.)._.`.'.].].7.[.{.[.}.}.[.{.[.7.].].7.`._.).(./.      ",
"        |./.(.). X.X.X XXXoXXXOXOXXXoXXX X.X.X X).(./.|.        ",
"            |.+X# @ @ # @X|.@X# # @X|.@X# @ @ # +X|.            ",
"                o . . o       o o       o . . o                 ",
"                                                                ",
"                                                                ",
"                                                                ",
"                                                                ",
"                                                                "
};
