/* XPM */
static char *ab54a613da1c4e15d90525bbbed74781D3OocWMFVv0BHhmF[] = {
/* columns rows colors chars-per-pixel */
"32 32 128 2 ",
"   c #130C14",
".  c #1B111C",
"X  c #221423",
"o  c #2B172D",
"O  c gray13",
"+  c #272837",
"@  c #2E263B",
"#  c #2D2E3A",
"$  c #33243E",
"%  c #322A3E",
"&  c #342B42",
"*  c #2F374A",
"=  c #333445",
"-  c #36344B",
";  c #38354F",
":  c #343D4A",
">  c #3A3750",
",  c #393C51",
"<  c #432445",
"1  c #412C4C",
"2  c #482A4F",
"3  c #432E52",
"4  c #492B50",
"5  c #433152",
"6  c #473D5B",
"7  c #4B3C5D",
"8  c #533C55",
"9  c #593864",
"0  c #613365",
"q  c #6C3F6F",
"w  c #3A4453",
"e  c #4A414B",
"r  c #484157",
"t  c #4C435F",
"y  c #4A4B5F",
"u  c #554B56",
"i  c #5B4D5C",
"p  c #5E555F",
"a  c #5B5B5B",
"s  c #636463",
"d  c #706C70",
"f  c #7E787F",
"g  c #527F93",
"h  c #98469C",
"j  c #8E5C91",
"k  c #95529A",
"l  c #99569E",
"z  c #906292",
"x  c #98679C",
"c  c #9B6B9F",
"v  c #A85BAC",
"b  c #B44EB5",
"n  c #B656BA",
"m  c #B957BD",
"M  c #A366A7",
"N  c #A46BA8",
"B  c #A96BAE",
"V  c #B164B3",
"C  c #B563BB",
"Z  c #BB63BE",
"A  c #BC6BBF",
"S  c #BF57C5",
"D  c #BB59C0",
"F  c #BC64C1",
"G  c #BB6AC1",
"H  c #C059C6",
"J  c #C45CCC",
"K  c #CD5BD2",
"L  c #D15ED3",
"P  c #C166C5",
"I  c #C669CD",
"U  c #CE6CCF",
"Y  c #CE65D3",
"T  c #CE6FD1",
"R  c #D16CD3",
"E  c #D367D9",
"W  c #D46DDA",
"Q  c #DB6FDF",
"!  c #D371D4",
"~  c #D270D9",
"^  c #DB64E3",
"/  c #D96FE0",
"(  c #DB70E0",
")  c #E877EF",
"_  c #E678EE",
"`  c #F06EF9",
"'  c #ED7AF3",
"]  c #F17CF7",
"[  c #F47DFC",
"{  c #4F889E",
"}  c #50879D",
"|  c #51899E",
" . c #558CA3",
".. c #5A8EA2",
"X. c #5C91A6",
"o. c #5E91A8",
"O. c #468EB7",
"+. c #478FB9",
"@. c #569AB0",
"#. c #5B9CB4",
"$. c #619DB3",
"%. c #64A1B7",
"&. c #65A3B9",
"*. c #6EB2CB",
"=. c #72B6CF",
"-. c #6DB4D1",
";. c #72B7D0",
":. c #73B8D1",
">. c #868387",
",. c #8E8D8E",
"<. c #939393",
"1. c #999299",
"2. c #9E9F9D",
"3. c #BC85BF",
"4. c #A4A3A4",
"5. c #ACAAAD",
"6. c #C081C3",
"7. c #D493D5",
"8. c #D892DA",
"9. c #F282F9",
"0. c #F380FC",
"q. c #F681FD",
"w. c #F582FD",
"e. c #F785FD",
"r. c #F787FF",
"t. c #F982FF",
"y. c #F984FF",
"u. c #F289FA",
/* pixels */
"=.=.=.=.;.=.=.;.=.=.=.=.=.=.=.=.:.=.=.=.=.=.=.=.=.=.=.=.=.=.=.=.",
"=.=.=.=.=.=.=.=.=.=.=.=.:.*.%.$.%.%.*.=.=.=.=.=.=.=.=.:.:.=.=.=.",
";.=.=.=.=.=.=.=.=.=.*.%.%.X.: # # : X.%.%.*.=.=.=.=.=.=.=.=.=.=.",
"=.=.=.;.;.=.=.=.=.=.X.w = r 3.7.7.3.6 & , ..=.=.=.=.=.=.=.=.=.:.",
"=.=.=.=.=.=.=.=.;.X.y 3.7.8.u.e.y.9.( R F t o.;.=.=.:.=.=.:.=.=.",
":.=.=.=.=.=.=.=.o.t 6.u.r.e.[ [ [ [ [ 0.] P 7 o.=.=.=.=.=.=.=.=.",
"=.=.=.=.=.=.=.o.6 P 0.[ q.0.[ [ [ [ 0.[ [ [ P 7 o.=.=.=.=.=.=.=.",
"=.=.=.=.=.=.%.- D [ [ w.q.r.t.t.q.y.e.e.q.[ [ D = %.=.=.=.:.=.=.",
"=.=.:.=.=.;.#.$ R ) W W ~ ~ ~ ~ W T ~ ~ ~ R ) R $ #.=.=.=.=.=.=.",
"=.=.=.=.=.*.+.& R I 8 p u .   0 q u e .   < ~ ! $ O.:.=.=.=.=.=.",
"=.:.=.=.=.=.%.% R ] g q a   X C C i s O o C y.! % #.=.=.=.=.=.=.",
"=.=.=.=.=.:.%.$ U ] ) v l k Z e.q.F l l I q.t.R $ $.=.=.=.=.=.;.",
"=.=.=.=.=.=.$.$ R e.q.q.q.y.q.q.e.y.t.] [ [ [ R $ $.=.=.;.=.=.;.",
"=.=.=.=.=.:.$.$ R ] [ A B A P P G V M z F [ [ R $ $.=.=.=.=.=.=.",
"=.=.=.=.=.=.&.; n ] [ Z >.5.4.1.1.<.<.f P [ ' n > &.;.=.=.=.=.=.",
":.=.=.:.=.=.=.X.8 J ] ) z ,.4.4.2.,.d j ' [ J 7 ..=.=.;.=.=.;.=.",
"=.=.=.=.=.=.=.=...1 ( [ ) A N c c M F _ [ ( 1 X.=.=.=.=.=.=.=.=.",
"=.=.=.=.=.=.=.;.&.= F ' [ [ [ [ ] [ q.[ [ F = &.=.=.=.=.=.=.=.=.",
"=.=.=.=.=.;.;.;.=.g 9 ( q.[ [ [ q.[ [ [ ( 9 g *.;.=.=.=.=.=.=.=.",
"=.=.=.=.$.$.$.#...7 D ] [ [ [ [ [ [ [ q.] D 7  .$.$.$.%.=.=.=.=.",
"=.=.=...- @ @ @ 1 S ` [ [ [ [ [ [ [ [ [ [ ] S 3 @ @ @ - ..*.;.=.",
"=.=.&.y h b K E Q ] [ q.[ [ [ q.[ [ [ [ [ [ ] ^ W Y b h y &.;.=.",
";.;.*. .- 4 H ^ ` [ [ ] ( W / ` ' ( W ( ] [ [ [ ^ S 4 =  .*.=.=.",
";.;.-.*.#.{ = 3 n Y K D 5 + 5 m m 5 + 5 D L L n 3 * | @.*.=.=.=.",
"=.=.*.=.;.*.#.{ > $ $ > } @. .- - } @.} - $ $ ; { #.*.*.;.=.=.=.",
"=.=.=.=.=.*.;.*.$.$.$.$.*.;.=.$.$.*.;.*.$.$.$.&.*.;.*.=.=.=.=.=.",
"=.=.=.=.*.=.*.;.;.;.:.=.;.=.=.;.:.;.=.=.:.;.;.;.-.=.=.=.=.;.;.=.",
"=.=.;.=.;.=.=.;.=.=.=.=.=.=.=.*.;.;.=.=.=.=.=.=.=.=.=.=.=.=.=.=.",
"=.=.=.=.;.=.=.=.=.=.=.=.=.=.=.=.;.=.=.=.;.=.=.=.=.;.=.=.=.;.=.=.",
"=.;.=.=.=.;.;.=.=.=.:.=.=.=.;.=.;.=.=.;.=.=.=.=.=.=.=.;.=.=.=.=.",
"=.=.;.=.=.;.=.=.=.=.=.=.;.=.=.=.=.=.=.=.=.=.=.=.=.=.=.=.;.=.=.;.",
"=.;.=.=.=.=.=.=.=.=.=.=.=.=.;.=.=.;.=.=.;.=.=.=.;.=.=.=.=.=.=.=."
};
