/* XPM */
static char *_97cf0cfc69b43d5b3a944cf1918138ei1GLm4PnZpUWhbPI[] = {
/* columns rows colors chars-per-pixel */
"32 32 124 2 ",
"   c #272837",
".  c #2E263A",
"X  c #2D2E3A",
"o  c #33243E",
"O  c #322A3E",
"+  c #2F2640",
"@  c #342B42",
"#  c #2F374A",
"$  c #333445",
"%  c #36344B",
"&  c #38354F",
"*  c #343D4A",
"=  c #3A3750",
"-  c #393C51",
";  c #412C4C",
":  c #482A4F",
">  c #432E52",
",  c #433152",
"<  c #473D5B",
"1  c #4B3C5D",
"2  c #4D3E61",
"3  c #593864",
"4  c #3A4453",
"5  c #3F4A62",
"6  c #484157",
"7  c #4C435F",
"8  c #4A4B5F",
"9  c #5B575B",
"0  c #5D5A5D",
"q  c #706D71",
"w  c #757176",
"e  c #7C787C",
"r  c #527F93",
"t  c #98469C",
"y  c #B44EB5",
"u  c #B656BA",
"i  c #B957BD",
"p  c #BB58BF",
"a  c #B761BB",
"s  c #BC63BF",
"d  c #B079B4",
"f  c #B472B9",
"g  c #BF57C5",
"h  c #BB59C0",
"j  c #BC62C0",
"k  c #BF79C3",
"l  c #C059C6",
"z  c #C45CCC",
"x  c #CD5BD2",
"c  c #D15ED3",
"v  c #C265C6",
"b  c #C66ACB",
"n  c #CB6DCF",
"m  c #CA76CF",
"M  c #CE65D3",
"N  c #CE6ED1",
"B  c #D16CD2",
"V  c #D367D9",
"C  c #D66DDB",
"Z  c #CD72D2",
"A  c #CC79D1",
"S  c #D271D4",
"D  c #D576DB",
"F  c #D37CD9",
"G  c #DB64E3",
"H  c #D96FE0",
"J  c #DC72E2",
"K  c #DD79E3",
"L  c #E677EB",
"P  c #E57AEC",
"I  c #E979EF",
"U  c #F06EF9",
"Y  c #EC7BF3",
"T  c #F17BF7",
"R  c #F37DFC",
"E  c #4F879D",
"W  c #4F889E",
"Q  c #50879D",
"!  c #558CA3",
"~  c #5A8EA2",
"^  c #5C91A6",
"/  c #5E91A8",
"(  c #468EB7",
")  c #478FB9",
"_  c #569AB0",
"`  c #5B9CB4",
"'  c #619DB3",
"]  c #64A1B7",
"[  c #65A3B9",
"{  c #6EB2CB",
"}  c #72B6CF",
"|  c #6DB4D1",
" . c #72B7D0",
".. c #73B8D1",
"X. c #9A959B",
"o. c #A08FA2",
"O. c #BB84BE",
"+. c #BA8BBD",
"@. c #BB99BD",
"#. c #A8A4A9",
"$. c #B0A6B1",
"%. c #B2AAB2",
"&. c #BF86C3",
"*. c #C297C5",
"=. c #D480DA",
"-. c #D493D5",
";. c #D892DA",
":. c #C4A5C6",
">. c #C5ADC7",
",. c #C8B2CA",
"<. c #CABBCB",
"1. c #F481FC",
"2. c #F685FD",
"3. c #F787FF",
"4. c #F883FE",
"5. c #F884FE",
"6. c #F289FA",
"7. c #DDA1E1",
"8. c #E3A6E8",
"9. c #CEC0CF",
"0. c #CFC4D0",
"q. c #D0C9D1",
"w. c gray92",
"e. c #F3F4F3",
/* pixels */
"} } } }  .} }  .} } } } } } .... . .} } } } } } } } } }  .} ..} ",
"} } } } } } } } } } } } ..{ ] ' ' ] } ..} } } } } } } } } } } } ",
" .} } } } } } } } } } ' ' ^ * X X * ~ ' ] { } } } } }  ...} } } ",
"} } }  . .} } } ..{ / 4 $ 6 &.-.-.&.< @ - ^ } } } } } } } } } } ",
"} } } } } } } } ..^ 8 O.-.;.6.2.2.6.C B j 7 / } } } } } } } } } ",
"..} } } } } } } / 7 &.6.5.2.R R R R R 4.R v 1 / } } } } } } ..} ",
"} } } } } } } / < v 6.R R R 4.R R R R 4.R T v < ^ } } } } } } } ",
"} } } } } } ] % h T T D -.8.=.Y Y A 7.;.K 1.R p $ ] ..} } } } } ",
"} } ..} }  .` o B R P :.w.e.<.m -.q.w.w.@.L R B o ' } } } } } } ",
"} } } } } { ) + B 4.F %.e q %.d +.#.0 d $.A 5.B o ( | } } } } } ",
"} ..} } } } ] O n 5.A $.q 0 X.f O.X.9 w o.D 4.S O ` } }  .} }  .",
"} } } } } ..] o n 4.P *.0.9.&.K =.>.q.,.k Y 4.B o ' } } } } } } ",
"} } } } } } ' o B 4.1.I D K Y 1.6.K D K R R R B o ' } } } }  .} ",
"} } } } } ..' o B R R 4.I P 1.R 1.R Y P R R 4.B o '  .} } } } } ",
"} } } } } } [ & u T R T a b 1.2.1.4.n u T R T i = [  .} } } }  .",
"..} } ..} } } ^ 1 z T R I N Z P I N b D I R z 1 ~ } } }  .} } } ",
"} } } } } } } } ~ % C R R 1.H N n D T R R C ; ~ } } } } }  .} } ",
"} } } } } } } } ] % s T R R 1.R 1.1.R R R j $ ] ..} } } } } } } ",
"} } } } }  . . .} r 3 H R R R R R R R R H 3 r { ..}  . .} } }  .",
"} } } } ' ` ' ` ~ 2 h T 1.R R R 4.R R R T p 2 ! ' ' ' ' } } } } ",
"} } } ^ % . . . ; l U R R R R R R R R R R T l > . . . & ^ } } } ",
"}  .] 5 t y x V C T R R R R R 4.R R R R R R T H C M y t 5 ] } } ",
"} } } ! % : l G U R R R J C H T T H C H T R R R G g : @ ~ { } } ",
"} } } } ` E % > u c c i >   , i h ,   , h c c u > # Q ` { } } } ",
"} } } } { { _ Q & o o & Q _ Q & & W / Q & o o & W ` { {  .} {  .",
"} } } } } }  .{ ] ' ' ' }  .{ ' ] {  .{ ' ' ' [ {  . .{ } }  . .",
"} } } } } { } } } }  . .} } } }  .| } } .. .} }  .} } }  .}  .} ",
"} } } } } } } } } } } } } } } } } } } } } } } } {  .} } } } } } ",
"} } } } } } } } } } }  .}  .} } } } } } }  .} }  .} } } } }  .} ",
"} }  .}  .} }  . .} } } } } } } }  .} } } } } ..} } }  .} } } } ",
" .} } } } } } } } } } } } } }  .}  . .} } } } } } } } } } } }  .",
"} }  .} }  .} } }  .} } }  .} } } } } }  .} } }  .} } }  .} } } "
};
