/* XPM */
static char *_43d53b983904ee7bbec406ea02ec5e74TDTp0HkDFCf7Bx5[] = {
/* columns rows colors chars-per-pixel */
"32 32 152 2 ",
"   c #1E0E1F",
".  c #181616",
"X  c #101518",
"o  c #1D111F",
"O  c #1F201D",
"+  c #1E1321",
"@  c #201421",
"#  c #231E2E",
"$  c #251F31",
"%  c #2D1D31",
"&  c #351F3A",
"*  c #1D2F38",
"=  c #1D2E37",
"-  c #292A27",
";  c #252422",
":  c #232132",
">  c #292333",
",  c #2A2D3E",
"<  c #33233D",
"1  c #27303B",
"2  c #2A303E",
"3  c #3D3E3B",
"4  c #602728",
"5  c #7E2022",
"6  c #382742",
"7  c #332840",
"8  c #2C3540",
"9  c #3F3651",
"0  c #472348",
"q  c #48284A",
"w  c #48244A",
"e  c #473049",
"r  c #473E5B",
"t  c #61334C",
"y  c #773C48",
"u  c #563C67",
"i  c #484946",
"p  c #50534E",
"a  c #404051",
"s  c #43415E",
"d  c #47475B",
"f  c #585856",
"g  c #555953",
"h  c #7E5255",
"j  c #842426",
"k  c #993F71",
"l  c #9C575C",
"z  c #A2575B",
"x  c #AC5B62",
"c  c #806366",
"v  c #896F75",
"b  c #917377",
"n  c #BB6970",
"m  c #80817E",
"M  c #557F95",
"N  c #995586",
"B  c #A34B8A",
"V  c #A04D94",
"C  c #A95099",
"Z  c #A85D95",
"A  c #BA6D85",
"S  c #B757BB",
"D  c #BA57BF",
"F  c #9D65A1",
"G  c #B968BF",
"H  c #C27283",
"J  c #C25CC6",
"K  c #C75EC9",
"L  c #C95DCD",
"P  c #CA5ED0",
"I  c #D55FDB",
"U  c #C466C8",
"Y  c #CB6CD1",
"T  c #D061D7",
"R  c #D56ED6",
"E  c #D461DA",
"W  c #DC63DE",
"Q  c #D76FD8",
"!  c #D572DB",
"~  c #DC74DD",
"^  c #DC79DE",
"/  c #DE67E8",
"(  c #DE75E2",
")  c #DF7AE0",
"_  c #E369ED",
"`  c #E376E9",
"'  c #E87AED",
"]  c #E276E5",
"[  c #ED6BF7",
"{  c #EF77F6",
"}  c #EC7AF4",
"|  c #F37DFB",
" . c #4E879D",
".. c #4F889E",
"X. c #51839B",
"o. c #568196",
"O. c #5D91A7",
"+. c #5D94A9",
"@. c #5F99AE",
"#. c #5594AB",
"$. c #5897B0",
"%. c #5798B0",
"&. c #5998B1",
"*. c #649EB5",
"=. c #5DA2BB",
"-. c #64A1B7",
";. c #67A4BB",
":. c #4F9DCC",
">. c #65A9C5",
",. c #6EADC7",
"<. c #6CADC8",
"1. c #70ADC7",
"2. c #6EB2CA",
"3. c #72B6CF",
"4. c #6DB3D0",
"5. c #73B6D0",
"6. c #8C8B8B",
"7. c #9E9D9D",
"8. c #A2868E",
"9. c #A09F9F",
"0. c #B497B6",
"q. c #B99ABA",
"w. c #A5A6A4",
"e. c #B1B0AF",
"r. c #BEAABE",
"t. c #B1A0B2",
"y. c #BFB7BF",
"u. c #B4B0B3",
"i. c #C690CB",
"p. c #CE8CD1",
"a. c #DA9ADC",
"s. c #C5ACC6",
"d. c #D8BADA",
"f. c #E69CEB",
"g. c #EF82F5",
"h. c #EF8DF7",
"j. c #EF89F8",
"k. c #F382FB",
"l. c #F880FC",
"z. c #F288FA",
"x. c #EE95F5",
"c. c #EE9EF4",
"v. c #F198F8",
"b. c #F195F9",
"n. c #DEB8E1",
"m. c #E5AAEA",
"M. c #E4B2E8",
"N. c #F0A4F6",
"B. c #D5C6D6",
"V. c #DCC6DC",
"C. c #DFCAE0",
"Z. c #E2C4E4",
/* pixels */
"3.3.3.3.3.3.3.3.3.3.3.3.3.3.3.3.3.3.3.3.3.3.3.3.3.3.3.3.3.3.3.3.",
"3.3.5.3.3.5.5.3.3.3.3.3.3.2.3.3.3.5.2.3.2.3.3.3.3.3.5.3.3.5.5.3.",
"5.3.3.3.3.3.3.3.3.3.2.-.-.+.> > > > +.-.-.3.3.3.3.3.3.3.3.3.3.3.",
"3.3.5.3.5.3.3.3.3.2.@.d a d p.p.p.p.r 9 s +.,.3.3.3.3.3.3.5.3.3.",
"5.3.3.3.3.3.3.3.2.+.2 i.a.a.k.k.z.z.Q Q Y , O.3.3.3.5.5.3.3.3.3.",
"3.3.3.3.3.3.3.3.*.e a.k.| | k.| | | | | | ~ q *.3.3.3.5.5.3.3.5.",
"3.3.3.3.3.3.2.;.1 Y g.| k.k.} | | | z.g.| } Y 1 ;.3.3.3.5.3.3.3.",
"5.3.3.3.3.3.2.o / { k.x.V.9.d.g.l.n.9.B.c.| | W . ,.3.3.5.3.5.3.",
"3.3.3.5.3.3.,.  ~ | | Z.e.; i m.f.f . w.C.| | ~ o ,.5.3.5.3.3.5.",
"3.3.3.3.3.4.:.+ ^ | | s.- . 3 m.f.i . O t.| k.~ o :.2.3.3.3.3.3.",
"5.5.3.5.3.3.<.. ^ k.| m.6.p u.x.h.y.g m M.k.k.) @ >.3.3.5.5.3.5.",
"5.5.5.5.3.3.2.o ^ k.k.k.b.N.h.k.l.h.N.v.k.k.k.~   ,.3.3.2.5.5.2.",
"5.3.3.3.3.3.,.o ~ | k.k.| } ~ ! ! ) | | k.| | ~ o 2.3.3.5.5.3.5.",
"5.3.5.3.3.3.2.o ~ | | k.` F 0.r.s.q.G } | | | ~   2.3.5.5.5.3.3.",
"3.3.5.3.3.5.2.> J { | k.V h b c v 8.4 C l.| } J : ,.3.3.3.3.3.3.",
"3.3.3.3.3.3.2.-.# / | | k j x z l n 5 B | | _ # -.3.3.3.5.3.3.5.",
"3.3.3.3.5.2.5.2.1.& R | V y A Z N H t U | Q & 1.3.3.3.3.3.3.3.3.",
"3.5.3.3.5.5.5.5.3.% R | } ~ ' | g.] ] | | Q % 3.3.3.3.3.3.3.3.3.",
"5.3.3.3.3.3.2.4.,.o.6 ] | | | k.| | | | ] < M 3.3.3.3.3.3.3.3.3.",
"5.2.3.2.@.+.+.+.+.u S | | | | | | | | | | S u O.O.O.+.@.,.3.3.3.",
"5.3.2.+.7 + = $ > I { | | | | | | | | | | | E > # # : 1 O.3.3.3.",
"5.3.-.s D I [ | | | | | | | | | | | | | | | | | | { E D s -.3.3.",
"3.2.2. .7 w P _ [ | { | } } ' | | } } } | | | { _ P q < X.,.3.3.",
"3.3.3.2.>.&.* $ J W W J < X % U L > . < J I I K $ * #.>.2.3.3.3.",
"3.3.3.3.2.2.=.%.: o   : ..=.#.: # #.=...: o o : &.=.2.2.5.3.3.3.",
"3.3.3.3.3.3.3.2.,.2.,.,.2.,.2.,.,.,.3.2.,.,.,.2.3.3.3.2.5.4.5.3.",
"3.3.3.3.3.5.3.5.3.3.3.3.3.3.3.3.3.3.3.3.3.3.3.3.3.3.3.3.3.3.3.3.",
"5.3.3.5.3.3.3.3.3.3.5.3.3.3.3.3.3.3.3.3.3.3.3.3.3.3.3.3.3.5.3.3.",
"3.3.5.3.3.3.3.3.3.3.3.3.3.5.3.3.3.3.3.3.5.3.3.5.3.3.5.5.3.3.3.5.",
"5.3.3.5.3.3.3.5.5.3.3.5.3.3.3.5.3.3.3.3.3.3.3.3.5.3.3.5.5.3.3.3.",
"3.3.3.3.3.3.3.3.3.3.5.5.3.5.3.3.3.3.3.3.3.3.3.3.3.3.5.5.3.3.3.3.",
"3.3.3.3.5.3.5.3.3.5.5.5.5.5.3.3.5.3.3.3.5.3.3.5.3.3.3.3.5.3.3.5."
};
