/* XPM */
static char *_dbffb4db2934ac49d6aeb38c2f2e656j0zuz75QvcevBLAJ[] = {
/* columns rows colors chars-per-pixel */
"50 50 191 2 ",
"   c #010100",
".  c #080605",
"X  c #000A02",
"o  c #000E09",
"O  c #0E0C0B",
"+  c #19000D",
"@  c #00100D",
"#  c #12110F",
"$  c #1D0B1A",
"%  c #081719",
"&  c #350B14",
"*  c #2C0725",
"=  c #2E0E2C",
"-  c #2B1629",
";  c #31122D",
":  c #301A28",
">  c #391736",
",  c #112627",
"<  c #142529",
"1  c #152D2F",
"2  c #192F33",
"3  c #153537",
"4  c #272625",
"5  c #312F2E",
"6  c #3B3939",
"7  c #4D0E15",
"8  c #570711",
"9  c #791718",
"0  c #411221",
"q  c #7A2C37",
"w  c #41403E",
"e  c #6B413D",
"r  c #1B3E42",
"t  c #263A44",
"y  c #273C49",
"u  c #3A314C",
"i  c #461A44",
"p  c #541E52",
"a  c #4B3449",
"s  c #582657",
"d  c #732F53",
"f  c #553763",
"g  c #602E60",
"h  c #6F3364",
"j  c #732B72",
"k  c #633C74",
"l  c #6E3B72",
"z  c #76337B",
"x  c #7A327C",
"c  c #773C7B",
"v  c #783C7B",
"b  c #2B4E5A",
"n  c #265259",
"m  c #2B565E",
"M  c #35525F",
"N  c #394F60",
"B  c #2D5461",
"V  c #2B5B63",
"C  c #356169",
"Z  c #3C6C7A",
"A  c #484946",
"S  c #525750",
"D  c #664D50",
"F  c #53456E",
"G  c #584170",
"H  c #4B5D76",
"J  c #784A74",
"K  c #79427B",
"L  c #4A687C",
"P  c #6D746A",
"I  c #746678",
"U  c #8A1D1A",
"Y  c #8F201C",
"T  c #833F7A",
"R  c #895057",
"E  c #8E516E",
"W  c #A86668",
"Q  c #BA6E74",
"!  c #CF7D7B",
"~  c #7D837B",
"^  c #7E4381",
"/  c #4E6F82",
"(  c #487688",
")  c #4C7B8C",
"_  c #4E7F90",
"`  c #833585",
"'  c #943E96",
"]  c #854687",
"[  c #8B4392",
"{  c #934F9B",
"}  c #8F7198",
"|  c #9748A1",
" . c #9951A2",
".. c #A24FA0",
"X. c #AF5AB5",
"o. c #B557BC",
"O. c #BD53C2",
"+. c #BD64C2",
"@. c #BA63C8",
"#. c #C558CF",
"$. c #CA5CD2",
"%. c #D15DDB",
"&. c #C466CB",
"*. c #CB68D3",
"=. c #D36DDA",
"-. c #D86BE4",
";. c #D972E2",
":. c #E465ED",
">. c #E36BEC",
",. c #E576EE",
"<. c #EE6CF7",
"1. c #EE6DF9",
"2. c #F86EFF",
"3. c #EB77F4",
"4. c #E778F2",
"5. c #EE76F8",
"6. c #EF7BF8",
"7. c #F473FD",
"8. c #FE73FF",
"9. c #F37DFC",
"0. c #FE7BFF",
"q. c #53879A",
"w. c #568FA1",
"e. c #5A91A5",
"r. c #5394B6",
"t. c #649DB4",
"y. c #679FB8",
"u. c #63A0B6",
"i. c #67A0B9",
"p. c #69A3BB",
"a. c #3C8BC3",
"s. c #5FA5C1",
"d. c #5AACD8",
"f. c #6BA7C0",
"g. c #64ACC7",
"h. c #6BAAC2",
"j. c #70AFC9",
"k. c #65B0CD",
"l. c #6DB1CA",
"z. c #72B6CF",
"x. c #6EB7D1",
"c. c #6AB8D5",
"v. c #6CBDDA",
"b. c #73B6D0",
"n. c #75BAD4",
"m. c #79C1DC",
"M. c #7CC5E1",
"N. c #73C8E8",
"B. c #938787",
"V. c #8C948A",
"C. c #92908B",
"Z. c #9BA398",
"A. c #AB9EA1",
"S. c #B485B8",
"D. c #B1ADAE",
"F. c #BAB9B7",
"G. c #EB8E8A",
"H. c #F9999B",
"J. c #BD85C3",
"K. c #D18FD6",
"L. c #C0BEC0",
"P. c #E788EE",
"I. c #E796ED",
"U. c #EC83F4",
"Y. c #EE87F6",
"T. c #F382FC",
"R. c #FD83FF",
"E. c #F38BFB",
"W. c #FF8AFF",
"Q. c #EF92F7",
"!. c #EE9BF5",
"~. c #F396FA",
"^. c #E7A3EC",
"/. c #EFADF4",
"(. c #F9ACFC",
"). c #F2B9F6",
"_. c #FDB5FF",
"`. c #FDBAFF",
"'. c #84D1EF",
"]. c #C6C6C5",
"[. c #CBCECA",
"{. c #C9D1C7",
"}. c #D7DAD6",
"|. c #E9C6EC",
" X c #E6DAE6",
".X c #F4C8F7",
"XX c #F3D3F5",
"oX c #F2D9F4",
"OX c #E9E2E9",
"+X c #F4FBF3",
"@X c #FFFEFF",
/* pixels */
"z.z.z.b.z.b.z.b.z.b.z.z.b.z.z.z.z.b.z.z.b.b.l.b.z.z.z.z.z.z.z.z.z.z.z.z.z.z.z.z.z.z.z.z.z.z.b.z.z.b.",
"b.z.b.z.b.z.z.b.z.z.z.z.z.z.z.z.z.l.z.b.b.b.b.b.z.z.z.z.z.z.z.x.z.z.z.z.z.z.z.z.z.z.z.z.z.b.z.z.z.z.",
"z.z.b.z.z.z.b.z.z.b.b.z.z.z.z.z.b.b.l.z.l.l.z.z.b.z.b.z.b.l.l.l.z.z.z.z.z.z.z.z.z.z.z.z.z.z.z.z.z.z.",
"z.z.z.z.z.b.z.b.z.z.z.b.z.z.z.z.z.n.m.n.M.p.% % % % % % u.m.m.m.n.z.z.z.z.z.z.z.z.z.z.z.z.z.b.z.z.b.",
"z.z.z.z.b.z.b.z.z.z.b.b.b.l.j.b.l.q.) ) _ / a a a a a a L q.) ) q.z.z.z.z.z.z.z.z.z.b.z.b.z.b.z.n.z.",
"z.z.b.z.z.z.z.z.z.z.z.l.b.b.b.b.n.1       - _.`.`.`.`._.4       , n.z.z.z.z.z.z.z.b.z.b.z.b.z.z.z.z.",
"b.z.b.z.b.z.z.b.z.z.l.z.b.l.M.q.< } S.S.S.J.E.E.E.E.E.E.+.X.X.o.{ , q.m.l.z.z.z.z.b.z.z.z.z.z.z.z.z.",
"z.z.z.z.z.z.z.z.b.b.b.b.z.j.t./ : K.`._._.(.7.9.9.9.9.9.R.R.R.W.=.* L t.l.z.z.z.z.z.b.b.b.z.z.b.z.z.",
"b.z.z.z.z.b.z.z.z.z.z.z.n.n.X A `.Y.9.9.9.9.9.9.9.9.9.9.9.9.6.6.9.R.s X n.n.l.z.z.z.z.z.b.z.b.z.z.z.",
"z.z.z.z.z.z.z.z.z.z.z.m.) t ] +.~.9.9.T.7.9.9.9.9.9.9.9.9.9.9.9.9.9.+.] 3 q.m.z.z.z.z.z.z.z.z.z.z.z.",
"z.z.z.z.z.z.z.z.z.z.l.p.N + 4.R.9.9.7.6.!.Q.3.9.9.9.9.5.Q.~.U.9.9.9.W.4.+ N h.j.z.z.z.z.z.z.z.z.z.z.",
"z.z.z.z.z.z.z.z.l.m.p.X z 8.3.9.9.9.I. X].[.oXQ.9.9.9.XX}.L. X^.9.T.9.3.8.x X p.z.z.z.z.b.z.b.z.z.z.",
"z.z.z.z.z.z.z.z.z.m.p.  z 0.6.9.9.P.@X@XA   P OXU.6.oXV.. 4 +X@XI.7.T.6.R.z   u.m.l.z.z.z.z.b.z.z.n.",
"z.z.z.z.z.n.b.z.l.z.p.  v W.9.9.7.).[.].w .   D.(.Q.{.O . 4 L.].|.9.T.3.W.v   i.z.z.z.z.z.b.z.z.z.z.",
"z.n.z.z.z.z.z.b.z.d.a.  v W.U.T.9..XP   # #   V.`.!.D.. O #   A XX9.E.6.R.v   a.d.z.z.z.z.z.z.z.z.z.",
"z.z.z.z.z.z.z.z.z.k.r.  K W.U.T.9./.F..   6 5 {.!.U.OX6 6     Z..X5.T.T.W.^   r.d.l.z.z.z.z.b.b.z.z.",
"z.b.b.z.z.z.z.z.z.n.p.X J W.U.T.T.9.XXF.S P {..X3.7./.}.~ S Z.oXU.T.T.U.W.] X t.b.z.z.z.z.b.b.z.z.z.",
"z.z.z.b.b.z.z.l.z.n.p.X l R.T.T.T.T.4.).XX.X/.6.T.E.9.^..XXX.XY.T.T.T.T.W.v   i.n.z.z.z.b.z.z.b.z.z.",
"z.z.b.z.z.b.z.z.z.b.i.  c R.6.T.T.T.T.9.6.3.6.E.T.T.T.6.6.6.5.T.T.T.9.6.W.v   i.b.z.z.z.z.b.z.z.z.z.",
"z.b.z.b.z.b.z.z.z.n.p.  v R.6.T.T.T.T.9.T.W.W.R.3.3.R.W.T.6.T.9.T.9.9.6.R.v   i.n.j.z.z.b.z.b.b.z.z.",
"z.b.z.z.z.z.z.z.z.n.p.  v W.6.T.T.T.T.T.6.[ ] ^ ^ E ] | -.R.9.9.9.9.9.6.R.v   i.n.z.z.z.z.z.z.z.z.z.",
"z.z.b.z.z.z.z.z.z.z.p.  c R.3.9.9.T.T.0.g Z.}.+X@X@X+X XI  .R.9.9.9.9.6.R.c   i.b.z.z.z.z.z.z.z.z.z.",
"z.z.z.z.z.z.z.z.z.n.p.  x 0.9.9.9.6.R...0 F.A.B.B.C.D.F.D & o.R.9.9.9.9.0.x   y.n.z.z.z.z.z.z.z.z.z.",
"z.b.z.z.z.z.z.z.z.n.f.Z F j >.9.9.9.T.h Y 9 8 8 8 7 0 8 Y U E R.9.9.9.>.j F Z p.b.z.z.z.z.z.z.z.z.z.",
"z.b.z.z.z.z.z.z.z.z.j.'.C   $.1.6.0.9.d Y q Q H.W W H.G.q 9 E 9.6.9.1.#.  C '.z.z.z.z.z.z.z.z.z.n.z.",
"z.z.z.z.z.z.z.z.z.z.z.j.z.f.% s R.6.R.T 7 W ! E E J R G.e $ =.0.6.R.h % p.z.z.z.z.z.z.z.z.z.z.z.z.z.",
"z.z.z.z.z.z.z.z.z.z.z.z.z.z.X s R.6.T.,.l J  .-.4.4.@.] v *.R.9.9.R.s X z.b.z.z.z.z.z.z.z.z.z.z.z.z.",
"b.z.z.b.z.z.z.z.z.z.z.z.z.z.@ s R.6.6.T.R.6.R.R.7.T.W.R.R.R.9.9.9.R.g o j.z.z.z.z.z.z.z.z.z.z.z.z.z.",
"z.z.z.z.z.z.z.z.z.z.z.z.z.l.h.L $ &.R.6.9.9.0.9.9.9.9.9.9.9.9.T.&.$ L f.j.z.z.z.z.z.z.z.z.z.z.z.z.z.",
"z.z.z.z.z.z.z.z.z.z.z.z.z.z.w.H i *.R.T.9.9.9.9.9.9.9.9.9.9.9.0.*.i H w.j.z.z.z.z.z.z.z.z.z.z.z.z.z.",
"z.z.z.z.z.l.z.m.n.n.n.n.n.z.X p 8.9.6.9.9.9.9.9.9.9.9.T.9.9.9.9.7.0.p X z.n.n.n.n.n.z.n.l.l.z.z.z.z.",
"z.z.z.z.z.m.m , 2 1 1 1 1 2 | $.7.9.9.9.9.T.9.9.9.9.9.9.9.9.9.T.9.9.$...2 1 1 1 1 1 , m m.m.z.z.z.z.",
"z.z.z.z.p.e.u * = = = ; ; > :.9.9.T.9.9.9.9.9.9.9.9.9.9.9.9.9.9.9.T.0.:.> ; ; ; = = * u e.h.b.z.z.z.",
"z.z.l.m.)   o.0.2.2.1.9.9.T.9.9.9.9.9.9.9.9.9.9.9.9.9.9.9.9.9.9.9.9.9.9.9.9.T.T.9.2.0.O.  ( m.l.z.z.",
"z.z.z.n.t.Z f s s O.0.7.7.1.9.9.9.9.9.T.T.R.0.T.T.9.T.R.0.T.T.9.9.9.9.9.9.9.2.0.O.s s f Z t.n.z.z.z.",
"z.z.z.z.x.v.r X X ` :.%.:.<.5.5.3.6.5.;.;.;.;.,.3.7.,.;.;.;.;.,.9.3.9.3.3.>.%.:.[ X   3 v.l.z.z.z.z.",
"z.z.z.z.l.l.g.s.k.y     ` 0.8.8.8.0.O.    . . [ 0.0.'         O.0.8.8.8.0.`     t k.s.g.l.x.b.z.z.z.",
"z.z.z.z.z.z.l.l.c.( b V F x z x z x k B M m m F x x G m B M B k x z z z x F V b ( x.k.l.l.b.l.z.z.z.",
"z.z.z.z.z.z.z.z.z.c.c.N.V           1 v.v.c.N.n     n N.v.v.v.3           V N.v.c.b.b.b.b.l.z.b.z.z.",
"z.z.z.z.z.z.z.l.z.l.l.l.h.y.y.y.p.u.p.l.l.j.l.p.y.y.p.l.j.l.l.p.y.y.y.i.y.f.l.l.l.z.l.z.b.z.b.z.z.z.",
"z.z.z.z.z.z.z.z.z.z.z.z.z.n.b.n.n.n.z.z.z.z.z.z.m.z.z.z.z.z.z.m.m.n.z.m.m.z.z.z.b.z.z.z.z.z.z.z.z.n.",
"z.z.z.z.z.z.z.z.z.z.z.z.z.z.z.z.z.z.z.z.z.z.z.z.l.z.z.z.z.z.l.z.l.l.z.l.l.z.z.z.l.b.b.l.z.z.z.z.z.z.",
"z.z.z.z.z.z.z.z.z.z.z.z.z.z.z.l.z.z.z.z.z.z.z.z.z.z.z.z.z.z.z.z.z.z.z.z.z.z.z.z.b.z.z.z.z.z.z.z.z.z.",
"z.z.z.z.z.z.z.z.z.z.z.z.z.z.b.z.z.z.z.z.z.z.z.z.z.z.z.z.z.z.z.z.z.z.z.z.z.z.n.z.b.b.z.b.z.z.b.z.z.z.",
"z.z.z.z.z.z.b.z.z.b.b.l.z.z.z.b.z.z.z.z.z.z.z.z.z.z.z.z.z.z.z.z.z.z.z.z.z.z.z.z.z.z.z.z.b.z.b.z.z.z.",
"z.z.z.z.z.z.z.z.z.b.b.b.z.z.b.z.z.z.z.n.z.z.z.z.z.z.z.z.z.n.z.z.z.z.z.z.z.z.z.z.z.z.z.z.z.z.z.z.z.z.",
"z.z.z.z.z.b.b.z.z.z.b.z.z.b.z.b.z.z.z.z.z.z.z.z.z.z.z.z.z.z.z.z.z.z.z.z.z.z.z.z.z.z.z.z.z.z.z.b.z.z.",
"z.m.z.z.z.z.z.z.z.b.b.z.b.z.b.z.z.z.z.z.n.z.z.z.z.z.z.z.z.z.z.z.z.z.z.z.n.z.z.z.z.z.z.z.z.z.z.z.z.n.",
"z.z.z.z.z.z.z.z.z.z.z.z.z.z.z.z.z.z.z.z.z.z.z.z.z.z.z.z.z.z.z.z.z.z.z.n.z.z.z.z.z.z.z.z.z.z.z.z.z.z.",
"z.z.z.z.z.z.z.z.z.z.z.z.z.n.z.z.z.z.n.z.z.z.z.z.z.n.z.z.n.z.z.z.z.z.z.z.z.z.z.z.z.z.z.n.z.z.z.z.z.z."
};
